<?xml version="1.0" standalone="no"?>
<!DOCTYPE svg PUBLIC "-//W3C//DTD SVG 20010904//EN"
 "http://www.w3.org/TR/2001/REC-SVG-20010904/DTD/svg10.dtd">
<svg version="1.0" xmlns="http://www.w3.org/2000/svg"
 width="512.000000pt" height="512.000000pt" viewBox="0 0 512.000000 512.000000"
 preserveAspectRatio="xMidYMid meet">
<metadata>
Created by potrace 1.14, written by Peter Selinger 2001-2017
</metadata>
<g transform="translate(0.000000,512.000000) scale(0.100000,-0.100000)"
fill="#000000" stroke="none">
<path d="M2460 4407 c0 -219 11 -314 40 -350 52 -65 77 -87 127 -113 l58 -29
255 -5 c240 -5 257 -6 290 -27 76 -47 109 -107 106 -188 -1 -27 -9 -66 -18
-85 -20 -46 -77 -96 -125 -109 -21 -6 -136 -11 -260 -11 -198 0 -228 -2 -276
-20 -72 -27 -130 -79 -162 -144 -28 -58 -33 -82 -34 -168 -1 -55 -2 -58 -26
-58 l-25 0 0 -150 0 -150 -1155 0 -1155 0 0 -1150 0 -1150 2460 0 2460 0 0
1150 0 1150 -1155 0 -1155 0 0 150 0 150 -25 0 c-24 0 -25 3 -25 55 0 67 19
108 57 123 17 7 125 13 268 14 229 4 243 5 298 28 149 64 246 200 253 357 6
132 -36 234 -133 323 -105 96 -159 109 -445 110 -147 0 -226 4 -243 12 -50 23
-55 48 -55 288 l0 220 -100 0 -100 0 0 -223z"/>
</g>
</svg>
